<svg width="25" height="24" viewBox="0 0 25 24" fill="none" xmlns="http://www.w3.org/2000/svg">
<rect width="25" height="24" fill="#E5E5E5"/>
<g id="Frame 1" clip-path="url(#clip0_0_1)">
<rect width="1440" height="5660" transform="translate(-749 -5530)" fill="white"/>
<g id="Copyright">
<rect id="Rectangle 33" x="-749" y="-130" width="1440" height="260" fill="#F46A06"/>
<path id="Vector" d="M12.0077 5.60553C8.60102 5.60553 5.85319 8.2395 5.85319 11.505C5.85319 14.7705 8.60102 17.4045 12.0077 17.4045C15.4143 17.4045 18.1622 14.7705 18.1622 11.505C18.1622 8.2395 15.4143 5.60553 12.0077 5.60553ZM12.0077 15.3404C9.8062 15.3404 8.00646 13.6204 8.00646 11.505C8.00646 9.38961 9.80085 7.66957 12.0077 7.66957C14.2145 7.66957 16.0089 9.38961 16.0089 11.505C16.0089 13.6204 14.2092 15.3404 12.0077 15.3404ZM19.8494 5.36421C19.8494 6.12924 19.2067 6.74024 18.4139 6.74024C17.6158 6.74024 16.9784 6.12411 16.9784 5.36421C16.9784 4.60431 17.6212 3.98818 18.4139 3.98818C19.2067 3.98818 19.8494 4.60431 19.8494 5.36421ZM23.9256 6.76078C23.8346 4.91751 23.3954 3.28476 21.9866 1.93954C20.5833 0.594311 18.8799 0.173287 16.957 0.0808675C14.9751 -0.0269558 9.03488 -0.0269558 7.05302 0.0808675C5.13544 0.168153 3.4321 0.589177 2.02337 1.9344C0.614645 3.27962 0.180778 4.91238 0.0843631 6.75564C-0.028121 8.65539 -0.028121 14.3495 0.0843631 16.2492C0.175422 18.0925 0.614645 19.7252 2.02337 21.0705C3.4321 22.4157 5.13008 22.8367 7.05302 22.9291C9.03488 23.037 14.9751 23.037 16.957 22.9291C18.8799 22.8418 20.5833 22.4208 21.9866 21.0705C23.39 19.7252 23.8292 18.0925 23.9256 16.2492C24.0381 14.3495 24.0381 8.66052 23.9256 6.76078ZM21.3653 18.2876C20.9475 19.2939 20.1387 20.0692 19.0835 20.4749C17.5033 21.0756 13.7539 20.937 12.0077 20.937C10.2615 20.937 6.50667 21.0705 4.93189 20.4749C3.88204 20.0744 3.07323 19.2991 2.65007 18.2876C2.02338 16.7729 2.168 13.1788 2.168 11.505C2.168 9.83117 2.02873 6.23193 2.65007 4.7224C3.06787 3.71605 3.87668 2.94075 4.93189 2.53513C6.51203 1.9344 10.2615 2.07303 12.0077 2.07303C13.7539 2.07303 17.5087 1.93954 19.0835 2.53513C20.1333 2.93562 20.9421 3.71092 21.3653 4.7224C21.992 6.23706 21.8474 9.83117 21.8474 11.505C21.8474 13.1788 21.992 16.7781 21.3653 18.2876Z" fill="white"/>
</g>
</g>
<defs>
<clipPath id="clip0_0_1">
<rect width="1440" height="5660" fill="white" transform="translate(-749 -5530)"/>
</clipPath>
</defs>
</svg>
