<svg width="26" height="20" viewBox="0 0 26 20" fill="none" xmlns="http://www.w3.org/2000/svg">
<rect width="26" height="20" fill="#E5E5E5"/>
<g id="Frame 1" clip-path="url(#clip0_0_1)">
<rect width="1440" height="5660" transform="translate(-701 -5534)" fill="white"/>
<g id="Copyright">
<rect id="Rectangle 33" x="-701" y="-134" width="1440" height="260" fill="#F46A06"/>
<path id="Vector" d="M23.3275 4.85726C23.344 5.07042 23.344 5.28363 23.344 5.49679C23.344 11.9985 17.9823 19.49 8.18277 19.49C5.16371 19.49 2.35915 18.683 0 17.2822C0.428951 17.3278 0.841347 17.3431 1.2868 17.3431C3.77789 17.3431 6.07107 16.5665 7.9023 15.2418C5.55965 15.1961 3.59644 13.7801 2.92003 11.831C3.25001 11.8767 3.57994 11.9072 3.92642 11.9072C4.40483 11.9072 4.8833 11.8462 5.3287 11.7397C2.88708 11.2829 1.0558 9.30342 1.0558 6.91285V6.85197C1.76516 7.21741 2.59011 7.4458 3.46441 7.47622C2.02913 6.59306 1.08881 5.08565 1.08881 3.38026C1.08881 2.46669 1.35272 1.62922 1.81468 0.898344C4.43779 3.88275 8.38072 5.83172 12.802 6.04492C12.7195 5.67948 12.67 5.29886 12.67 4.91819C12.67 2.20783 15.0457 0 17.9987 0C19.533 0 20.9188 0.593834 21.8921 1.55311C23.0964 1.33995 24.2512 0.92881 25.2741 0.36544C24.8781 1.50746 24.0368 2.46673 22.9315 3.07575C24.0038 2.96922 25.0432 2.69508 26 2.31445C25.2742 3.28891 24.3668 4.15679 23.3275 4.85726Z" fill="white"/>
</g>
</g>
<defs>
<clipPath id="clip0_0_1">
<rect width="1440" height="5660" fill="white" transform="translate(-701 -5534)"/>
</clipPath>
</defs>
</svg>
