<svg width="16" height="16" viewBox="0 0 16 16" fill="none" xmlns="http://www.w3.org/2000/svg">
<rect width="16" height="16" fill="#E5E5E5"/>
<g id="Frame 1" clip-path="url(#clip0_0_1)">
<rect width="1440" height="5660" transform="translate(-652 -3477)" fill="white"/>
<g id="Explore Our Foods">
<rect id="Rectangle 10" x="-652" y="-752" width="1440" height="884" fill="white"/>
<g id="product">
<g id="Button">
<path id="Rectangle 7" d="M-110 -17.0002H40V33H-110V-17.0002Z" fill="#F46A06"/>
<path id="Vector" d="M16 6.27283V6.81828C16 7.27016 15.7015 7.63646 15.3333 7.63646H15.1111L14.3858 13.8679C14.2919 14.674 13.7294 15.2728 13.0658 15.2728H2.93417C2.27064 15.2728 1.70808 14.674 1.61422 13.8679L0.888889 7.63646H0.666667C0.298472 7.63646 0 7.27016 0 6.81828V6.27283C0 5.82095 0.298472 5.45464 0.666667 5.45464H2.53725L5.50336 0.449381C5.79211 -0.0378466 6.348 -0.145608 6.74506 0.208767C7.14208 0.563142 7.22986 1.2454 6.94111 1.73267L4.73547 5.45464H11.2645L9.05889 1.73263C8.77014 1.2454 8.85794 0.563108 9.25497 0.208733C9.65194 -0.145642 10.2079 -0.0379147 10.4967 0.449347L13.4628 5.45464H15.3333C15.7015 5.45464 16 5.82095 16 6.27283ZM8.66667 12.2728V8.45464C8.66667 8.00277 8.36819 7.63646 8 7.63646C7.63181 7.63646 7.33333 8.00277 7.33333 8.45464V12.2728C7.33333 12.7247 7.63181 13.091 8 13.091C8.36819 13.091 8.66667 12.7247 8.66667 12.2728ZM11.7778 12.2728V8.45464C11.7778 8.00277 11.4793 7.63646 11.1111 7.63646C10.7429 7.63646 10.4444 8.00277 10.4444 8.45464V12.2728C10.4444 12.7247 10.7429 13.091 11.1111 13.091C11.4793 13.091 11.7778 12.7247 11.7778 12.2728ZM5.55556 12.2728V8.45464C5.55556 8.00277 5.25708 7.63646 4.88889 7.63646C4.52069 7.63646 4.22222 8.00277 4.22222 8.45464V12.2728C4.22222 12.7247 4.52069 13.091 4.88889 13.091C5.25708 13.091 5.55556 12.7247 5.55556 12.2728Z" fill="white"/>
</g>
</g>
</g>
</g>
<defs>
<clipPath id="clip0_0_1">
<rect width="1440" height="5660" fill="white" transform="translate(-652 -3477)"/>
</clipPath>
</defs>
</svg>
